<svg width="23" height="22" viewBox="0 0 23 22" fill="none" xmlns="http://www.w3.org/2000/svg">
<path d="M8.0625 17.1875C8.0625 17.9469 7.44689 18.5625 6.6875 18.5625C5.92811 18.5625 5.3125 17.9469 5.3125 17.1875M8.0625 17.1875C8.0625 16.4281 7.44689 15.8125 6.6875 15.8125C5.92811 15.8125 5.3125 16.4281 5.3125 17.1875M8.0625 17.1875H13.5625M5.3125 17.1875H3.59375C3.02421 17.1875 2.5625 16.7258 2.5625 16.1563V13.0629M18.375 17.1875C18.375 17.9469 17.7594 18.5625 17 18.5625C16.2406 18.5625 15.625 17.9469 15.625 17.1875M18.375 17.1875C18.375 16.4281 17.7594 15.8125 17 15.8125C16.2406 15.8125 15.625 16.4281 15.625 17.1875M18.375 17.1875L19.4062 17.1875C19.9758 17.1875 20.4409 16.7252 20.4058 16.1568C20.2133 13.0331 19.1517 10.1446 17.4598 7.7301C17.1278 7.25626 16.5902 6.97376 16.0124 6.94206H13.5625M15.625 17.1875H13.5625M13.5625 6.94206V6.06356C13.5625 5.54336 13.1752 5.10327 12.6578 5.04958C11.1474 4.89284 9.61433 4.8125 8.0625 4.8125C6.51067 4.8125 4.9776 4.89284 3.46723 5.04958C2.94981 5.10327 2.5625 5.54336 2.5625 6.06356V13.0629M13.5625 6.94206V13.0629M13.5625 17.1875V13.0629M13.5625 13.0629H2.5625" stroke="#1E7B8C" stroke-width="1.5" stroke-linecap="round" stroke-linejoin="round"/>
</svg>
