<svg width="23" height="22" viewBox="0 0 23 22" fill="none" xmlns="http://www.w3.org/2000/svg">
<path d="M11.5 5.5V16.5M8.75 13.9167L9.55563 14.5209C10.6295 15.3264 12.3707 15.3264 13.4446 14.5209C14.5185 13.7155 14.5185 12.4095 13.4446 11.6041C12.9076 11.2013 12.2037 11 11.4999 11C10.8354 11 10.171 10.7987 9.664 10.3959C8.65008 9.59048 8.65008 8.28457 9.664 7.47912C10.6779 6.67366 12.3218 6.67366 13.3357 7.47912L13.7161 7.78124M19.75 11C19.75 15.5563 16.0563 19.25 11.5 19.25C6.94365 19.25 3.25 15.5563 3.25 11C3.25 6.44365 6.94365 2.75 11.5 2.75C16.0563 2.75 19.75 6.44365 19.75 11Z" stroke="#1E7B8C" stroke-width="1.5" stroke-linecap="round" stroke-linejoin="round"/>
</svg>
