<svg width="23" height="22" viewBox="0 0 23 22" fill="none" xmlns="http://www.w3.org/2000/svg">
<path d="M3.93749 8.96135C4.04019 8.94566 4.14557 8.9375 4.25307 8.9375H18.7469C18.8544 8.9375 18.9598 8.94566 19.0625 8.96135M3.93749 8.96135C2.84115 9.1289 2.049 10.1556 2.2113 11.2917L2.99702 16.7917C3.14217 17.8078 4.01238 18.5625 5.03879 18.5625H17.9612C18.9876 18.5625 19.8578 17.8078 20.003 16.7917L20.7887 11.2917C20.951 10.1556 20.1588 9.1289 19.0625 8.96135M3.93749 8.96135V5.5C3.93749 4.36091 4.8609 3.4375 5.99999 3.4375H9.55545C9.92012 3.4375 10.2699 3.58237 10.5277 3.84023L12.4723 5.78477C12.7301 6.04263 13.0799 6.1875 13.4445 6.1875H17C18.1391 6.1875 19.0625 7.11091 19.0625 8.25V8.96135" stroke="#1E7B8C" stroke-width="1.5" stroke-linecap="round" stroke-linejoin="round"/>
</svg>
