<svg width="23" height="22" viewBox="0 0 23 22" fill="none" xmlns="http://www.w3.org/2000/svg">
<path d="M17 17.1592C17.2269 17.1779 17.4564 17.1875 17.6881 17.1875C18.6491 17.1875 19.5717 17.0232 20.4293 16.7212C20.4351 16.6482 20.4381 16.5744 20.4381 16.5C20.4381 14.9812 19.2069 13.75 17.6881 13.75C17.1128 13.75 16.5787 13.9267 16.1372 14.2287M17 17.1592C17.0001 17.1686 17.0001 17.1781 17.0001 17.1875C17.0001 17.3937 16.9887 17.5973 16.9666 17.7977C15.3562 18.7217 13.4898 19.25 11.5001 19.25C9.51028 19.25 7.64389 18.7217 6.03353 17.7977C6.01141 17.5973 6.00006 17.3937 6.00006 17.1875C6.00006 17.1781 6.00008 17.1687 6.00013 17.1593M17 17.1592C16.9946 16.0807 16.6787 15.0756 16.1372 14.2287M16.1372 14.2287C15.1601 12.7006 13.4484 11.6875 11.5001 11.6875C9.55196 11.6875 7.84041 12.7003 6.86328 14.2281M6.86328 14.2281C6.42194 13.9264 5.88819 13.75 5.31323 13.75C3.79445 13.75 2.56323 14.9812 2.56323 16.5C2.56323 16.5744 2.56619 16.6482 2.572 16.7212C3.42966 17.0232 4.35226 17.1875 5.31323 17.1875C5.54455 17.1875 5.77364 17.178 6.00013 17.1593M6.86328 14.2281C6.32154 15.0752 6.00555 16.0805 6.00013 17.1593M14.2501 6.1875C14.2501 7.70628 13.0188 8.9375 11.5001 8.9375C9.98128 8.9375 8.75006 7.70628 8.75006 6.1875C8.75006 4.66872 9.98128 3.4375 11.5001 3.4375C13.0188 3.4375 14.2501 4.66872 14.2501 6.1875ZM19.7501 8.9375C19.7501 10.0766 18.8266 11 17.6876 11C16.5485 11 15.6251 10.0766 15.6251 8.9375C15.6251 7.79841 16.5485 6.875 17.6876 6.875C18.8266 6.875 19.7501 7.79841 19.7501 8.9375ZM7.37506 8.9375C7.37506 10.0766 6.45165 11 5.31256 11C4.17347 11 3.25006 10.0766 3.25006 8.9375C3.25006 7.79841 4.17347 6.875 5.31256 6.875C6.45165 6.875 7.37506 7.79841 7.37506 8.9375Z" stroke="#1E7B8C" stroke-width="1.5" stroke-linecap="round" stroke-linejoin="round"/>
</svg>
